<svg xmlns="http://www.w3.org/2000/svg" width="23" height="32" viewBox="34 24 152 214" fill="none"><defs><linearGradient id="g" x1="36" y1="26" x2="184" y2="236" gradientUnits="userSpaceOnUse"><stop stop-color="#C45BEA"></stop><stop offset="1" stop-color="#0FB6F2"></stop></linearGradient><clipPath id="bd"><circle cx="110" cy="162" r="74"></circle></clipPath><radialGradient id="sp" cx="80" cy="118" r="46" gradientUnits="userSpaceOnUse"><stop stop-color="#fff" stop-opacity=".55"></stop><stop offset="1" stop-color="#fff" stop-opacity="0"></stop></radialGradient><linearGradient id="rm" x1="58" y1="98" x2="150" y2="200" gradientUnits="userSpaceOnUse"><stop stop-color="#fff" stop-opacity=".6"></stop><stop offset=".45" stop-color="#fff" stop-opacity="0"></stop><stop offset="1" stop-color="#fff" stop-opacity="0"></stop></linearGradient></defs><rect x="80" y="24" width="60" height="21" rx="6" fill="#9B7BE8"></rect><rect x="85" y="31" width="50" height="3" rx="1.5" fill="#fff" fill-opacity=".38"></rect><rect x="91" y="41" width="38" height="57" rx="5" fill="url(#g)"></rect><rect x="91" y="41" width="38" height="57" rx="5" fill="#fff" fill-opacity=".26"></rect><rect x="96" y="49" width="6" height="43" rx="3" fill="#fff" fill-opacity=".4"></rect><circle cx="110" cy="162" r="74" fill="url(#g)"></circle><g clip-path="url(#bd)"><path d="M30 138h180V60H30Z" fill="#fff" fill-opacity=".3"></path><ellipse cx="110" cy="172" rx="36" ry="36" fill="#fff"></ellipse><ellipse cx="110" cy="172" rx="27.5" ry="27.5" fill="#B79CF2"></ellipse><g transform="translate(110 169) scale(1.3) translate(-110 -163)"><path d="M102 150Q102 144 107.2 147L126.8 160.5Q131.5 163 126.8 165.5L107.2 179Q102 182 102 176Z" fill="#0B1B33"></path></g></g></svg>